# xmcd CD database file
#
# Track frame offsets:
#	150
#	14601
#	29822
#	42534
#	58113
#	74359
#	90997
#	103244
#	116335
#	132647
#	151698
#
# Disc length: 2232 seconds
#
# Revision: 0
# Processed by: cddbd v1.5.1PL0 Copyright (c) Steve Scherf et al.
# Submitted via: CDex 1.51
#
DISCID=9a08b60b
DTITLE=Exile - All The #1's
DYEAR=2002
DGENRE=Country
TTITLE0=Woke Up In Love
TTITLE1=I Don't Want To Be A Memory
TTITLE2=Give Me One More Chance
TTITLE3=Crazy For Your Love
TTITLE4=She's A Miracle
TTITLE5=Hang On To Your Heart
TTITLE6=I Could Get Used To You
TTITLE7=It'll Be Me
TTITLE8=She's Too Good To Be True
TTITLE9=I Can't Get Close Enough
TTITLE10=Kiss You All Over
EXTD=YEAR: 2002
EXTT0=
EXTT1=
EXTT2=
EXTT3=
EXTT4=
EXTT5=
EXTT6=
EXTT7=
EXTT8=
EXTT9=
EXTT10=
PLAYORDER=
